<?xml version="1.0" standalone="no"?>
<!DOCTYPE svg PUBLIC "-//W3C//DTD SVG 20010904//EN"
 "http://www.w3.org/TR/2001/REC-SVG-20010904/DTD/svg10.dtd">
<svg version="1.0" xmlns="http://www.w3.org/2000/svg"
 width="260.000000pt" height="260.000000pt" viewBox="0 0 260.000000 260.000000"
 preserveAspectRatio="xMidYMid meet">
<metadata>
Created by potrace 1.14, written by Peter Selinger 2001-2017
</metadata>
<g transform="translate(0.000000,260.000000) scale(0.100000,-0.100000)"
fill="#000000" stroke="none">
<path d="M1235 2423 c-287 -15 -560 -138 -765 -343 -225 -224 -341 -505 -341
-825 -1 -272 78 -502 248 -723 50 -66 188 -202 204 -202 3 0 11 18 18 41 7 23
15 48 18 55 4 12 -2 13 -35 8 -22 -3 -47 -2 -56 3 -14 8 -10 14 23 38 39 30
60 63 87 138 13 37 13 37 -13 37 -46 0 -156 31 -207 58 l-49 27 56 11 c30 6
81 22 113 35 l59 24 -84 10 c-47 5 -86 15 -87 20 -2 6 14 18 36 28 73 34 193
137 177 153 -2 3 -29 -4 -58 -16 -60 -22 -91 -27 -44 -6 45 20 123 101 226
236 88 116 181 208 270 267 31 20 39 31 35 47 -3 12 -10 55 -16 96 -6 41 -17
107 -25 145 -8 39 -19 95 -25 125 -17 88 -17 88 -102 46 -41 -20 -96 -57 -124
-82 -57 -53 -47 -49 56 21 42 28 90 57 108 63 31 11 32 10 41 -26 6 -20 15
-69 21 -109 l11 -72 -53 -65 -53 -65 -15 79 c-8 44 -18 80 -22 80 -10 0 -9
-101 2 -165 7 -46 5 -55 -28 -117 -20 -38 -46 -80 -59 -95 l-22 -28 -1 34 c-1
88 -24 261 -33 252 -5 -5 -12 -87 -15 -181 l-5 -170 -47 -40 c-26 -22 -50 -40
-53 -40 -2 0 -4 42 -4 93 0 170 -3 208 -13 202 -6 -3 -10 -34 -10 -68 0 -44
-10 -96 -37 -180 l-37 -119 -81 -40 c-44 -22 -99 -58 -123 -80 -24 -22 -46
-38 -48 -35 -3 3 22 56 54 118 34 64 63 134 67 159 12 82 65 271 95 336 47
104 134 228 189 273 122 95 295 181 368 181 32 0 63 -43 64 -88 0 -15 17 -112
38 -217 l37 -190 37 -6 c21 -3 51 -16 68 -28 l29 -22 29 22 c17 12 47 25 68
28 l38 6 38 210 c21 116 46 227 55 249 16 38 16 38 63 33 84 -10 229 -84 345
-175 60 -47 145 -168 194 -276 29 -64 83 -253 95 -336 7 -46 28 -94 91 -207
20 -35 34 -66 31 -69 -3 -3 -25 12 -49 34 -24 22 -79 58 -123 80 l-81 40 -37
119 c-27 84 -37 136 -37 180 0 34 -4 65 -10 68 -10 6 -15 -74 -12 -222 0 -40
-2 -73 -5 -73 -3 0 -27 18 -53 40 l-47 40 -5 170 c-3 94 -10 176 -15 181 -9 9
-32 -164 -33 -252 l-1 -34 -22 28 c-13 15 -39 57 -59 95 -33 62 -35 71 -28
117 11 64 12 165 2 165 -4 0 -14 -36 -22 -80 l-15 -79 -53 65 -53 65 11 72 c6
40 15 89 21 109 9 36 10 37 41 26 18 -6 66 -35 108 -63 103 -70 113 -74 56
-21 -28 25 -83 62 -124 82 -85 42 -85 42 -102 -46 -6 -30 -17 -86 -25 -125 -8
-38 -19 -104 -25 -145 -6 -41 -13 -84 -16 -95 -3 -15 7 -28 38 -50 98 -69 184
-153 268 -266 99 -130 174 -209 223 -233 40 -19 22 -21 -24 -2 -56 23 -79 28
-79 18 0 -19 85 -94 152 -134 37 -22 66 -44 63 -48 -3 -4 -42 -11 -87 -15
l-83 -8 55 -24 c30 -14 81 -30 113 -36 l60 -12 -49 -27 c-51 -27 -161 -58
-207 -58 l-26 0 15 -42 c24 -71 44 -102 85 -133 33 -24 37 -30 23 -38 -9 -5
-34 -6 -56 -3 -44 7 -43 12 -14 -72 l12 -34 76 71 c544 508 482 1383 -127
1813 -209 148 -475 224 -730 211z"/>
<path d="M912 1103 c-33 -6 -100 -79 -113 -123 -22 -74 31 -173 114 -217 45
-23 137 -29 173 -10 71 37 98 95 79 169 -30 119 -145 201 -253 181z"/>
<path d="M1609 1101 c-92 -19 -179 -124 -181 -220 -1 -76 69 -141 151 -141
101 1 179 53 211 138 25 66 21 100 -16 154 -43 62 -93 83 -165 69z"/>
</g>
</svg>
